<svg width="100" height="100" viewBox="0 0 100 100" fill="none" xmlns="http://www.w3.org/2000/svg">
<path d="M3.65318 29.5898C3.29912 23.8363 7.86988 18.9756 13.6343 18.9756H86.3657C92.1301 18.9756 96.7009 23.8363 96.3468 29.5898L92.9922 84.102C92.6676 89.3763 88.2954 93.4878 83.0111 93.4878H16.9889C11.7046 93.4878 7.33235 89.3764 7.00778 84.102L3.65318 29.5898Z" fill="url(#paint0_linear_1578_17)"/>
<path d="M58.4482 14.7661C74.6243 18.4885 86.2551 33.0294 86.2549 49.7485C86.2548 69.5416 70.1519 85.6445 50.3584 85.645C30.565 85.645 14.4645 69.5415 14.4639 49.7485C14.4639 33.0296 26.093 18.4881 42.2705 14.7661L45.8604 21.9878C39.8978 22.9501 34.5786 25.7625 30.5039 29.8228C30.4918 29.834 30.4796 29.8453 30.4678 29.8569L30.0107 30.3257C25.7285 34.812 22.9215 40.7208 22.3438 47.2983C21.5955 55.8065 24.7423 63.7761 30.3047 69.4448C30.3524 69.5132 30.4069 69.579 30.4678 69.6401C30.5285 69.7008 30.5932 69.7547 30.6611 69.8022C35.1554 74.2222 41.1508 77.1697 47.9082 77.7642C48.6568 77.8299 49.4004 77.865 50.1396 77.8716C50.2107 77.8824 50.2843 77.8882 50.3584 77.8882C50.4318 77.8882 50.504 77.8832 50.5742 77.8726C58.0678 77.8233 64.9831 74.7803 70.0557 69.8032C70.124 69.7556 70.189 69.701 70.25 69.6401C70.3106 69.5797 70.3646 69.5146 70.4121 69.4468C74.8324 64.9526 77.7801 58.9572 78.374 52.1997C78.44 51.4503 78.4764 50.7026 78.4834 49.9585C78.4934 49.8899 78.499 49.8198 78.499 49.7485C78.499 49.6795 78.4939 49.6119 78.4844 49.5454C78.4513 43.0082 76.1608 36.7443 71.9033 31.6733C71.4047 31.0794 70.8856 30.5091 70.3467 29.9634C70.3166 29.9267 70.2844 29.8911 70.25 29.8569C70.2175 29.8243 70.1832 29.794 70.1484 29.7651C65.9786 25.624 60.6749 22.9237 54.8574 21.9878L58.4482 14.7661ZM67.1777 68.5864C63.0086 72.3089 57.6244 74.6526 51.7871 74.9771V58.0513C53.0478 57.8352 54.2134 57.3376 55.2178 56.6265L67.1777 68.5864ZM45.5 56.6274C46.5045 57.3388 47.671 57.8364 48.9316 58.0522L48.9307 74.9741C48.6734 74.9595 48.4156 74.9412 48.1572 74.9185C42.5159 74.4223 37.4654 72.1005 33.5391 68.5884L45.5 56.6274ZM75.5283 51.9487C75.0323 57.5906 72.711 62.6413 69.1992 66.5679L57.2373 54.6079C57.9489 53.6039 58.4461 52.4371 58.6621 51.1763H75.585C75.5701 51.4333 75.551 51.6911 75.5283 51.9487ZM42.0557 51.1763C42.2719 52.4371 42.7701 53.6029 43.4814 54.6069L31.5205 66.5669C27.7986 62.398 25.4556 57.0131 25.1309 51.1763H42.0557ZM50.3584 44.1802C51.7725 44.1803 53.156 44.7304 54.1797 45.6948C54.2161 45.7416 54.2557 45.7866 54.2988 45.8296C54.34 45.871 54.3839 45.9096 54.4287 45.9448C55.3834 46.9675 55.9274 48.3432 55.9268 49.7485C55.9266 52.8183 53.4285 55.3157 50.3574 55.3159C47.2889 55.3157 44.7914 52.8179 44.791 49.7485C44.791 48.2674 45.3728 46.9191 46.3193 45.9204C46.3534 45.8921 46.386 45.8615 46.418 45.8296C46.4518 45.796 46.4839 45.7612 46.5137 45.7251C47.5139 44.769 48.8696 44.1802 50.3584 44.1802ZM43.4736 44.9009C42.7669 45.9022 42.272 47.0641 42.0566 48.3198H25.1338C25.1486 48.063 25.1677 47.8052 25.1904 47.5474C25.6837 41.9354 27.9834 36.8649 31.5088 32.9165L43.4736 44.9009ZM69.7168 33.5103C73.2699 37.7427 75.2983 42.9 75.5918 48.3198H58.6611C58.4476 47.0921 57.9634 45.9175 57.249 44.8979L69.208 32.9214C69.3803 33.1145 69.5496 33.311 69.7168 33.5103ZM48.9326 28.1646V41.4448C47.6671 41.6617 46.4968 42.1618 45.4902 42.8774L33.5273 30.8979C37.2499 27.5734 41.9693 25.3391 47.2002 24.6812L48.9326 28.1646ZM53.5186 24.6812C58.6542 25.3264 63.3829 27.4874 67.1895 30.8979L55.2314 42.8755C54.2068 42.1529 53.0244 41.6618 51.7871 41.4468V28.1636L53.5186 24.6812ZM50.3594 24.6177L41.8535 7.51221H58.8672L50.3594 24.6177Z" fill="url(#paint1_linear_1578_17)"/>
<rect x="7.58496" y="56.8047" width="84.8293" height="36.6829" rx="10" fill="black" fill-opacity="0.01"/>
<defs>
<linearGradient id="paint0_linear_1578_17" x1="50" y1="18.9756" x2="50" y2="93.4878" gradientUnits="userSpaceOnUse">
<stop stop-color="#FBFBFB"/>
<stop offset="1" stop-color="#EBEBEB"/>
</linearGradient>
<linearGradient id="paint1_linear_1578_17" x1="50.3594" y1="7.51221" x2="50.3594" y2="85.645" gradientUnits="userSpaceOnUse">
<stop stop-color="#FF8888"/>
<stop offset="1" stop-color="#FF3333"/>
</linearGradient>
</defs>
</svg>
