<svg width="146" height="20" viewBox="0 0 146 20" fill="none" xmlns="http://www.w3.org/2000/svg">
<path d="M17.7933 3.05176e-05C17.7933 3.05176e-05 6.44985 3.05176e-05 4.95729 3.05176e-05C3.46473 3.05176e-05 2.70352 1.13439 2.70352 2.71652C2.70352 4.29865 3.94235 5.08971 5.52446 5.08971C7.10658 5.08971 17.8083 5.08971 17.8083 5.08971V3.97028C17.8083 3.97028 7.07673 3.97028 5.74835 3.97028C4.41997 3.97028 3.77817 3.64192 3.77817 2.43293C3.77817 1.22394 4.59908 1.16424 4.79311 1.16424C4.98714 1.16424 17.8083 1.16424 17.8083 1.16424V3.05176e-05H17.7933Z" fill="#D62617"/>
<path d="M18.6149 0.447803V0.701541C18.3612 1.00006 17.8089 1.14931 17.8089 1.14931V3.05176e-05C17.794 3.05176e-05 18.3612 0.149288 18.6149 0.447803Z" fill="#D62617"/>
<path d="M1.32773 6.13536C1.32773 6.13536 14.8056 6.13536 16.5966 6.13536C18.3877 6.13536 19.2833 7.47868 19.2833 9.32947C19.2833 11.1803 17.8056 12.1355 15.925 12.1355C14.0444 12.1355 1.32773 12.1355 1.32773 12.1355V10.8071C1.32773 10.8071 14.0891 10.8071 15.6563 10.8071C17.2235 10.8071 17.9997 10.4191 17.9997 9.00111C17.9997 7.58316 17.0295 7.4936 16.7907 7.4936C16.5519 7.4936 1.31281 7.4936 1.31281 7.4936V6.13536H1.32773Z" fill="#D62617"/>
<path d="M1.32859 6.13536V7.4936C1.32859 7.4936 0.671864 7.3145 0.373352 6.9712V6.64284C0.671864 6.31447 1.32859 6.13536 1.32859 6.13536Z" fill="#D62617"/>
<path d="M20.3289 13.284C20.3289 13.284 5.2391 13.284 3.23907 13.284C1.23904 13.284 0.373352 14.6124 0.373352 16.5975C0.373352 19.0304 1.88084 19.7021 3.98535 19.7021C6.08987 19.7021 20.3289 19.7021 20.3289 19.7021V18.2841C20.3289 18.2841 6.04509 18.2841 4.28387 18.2841C2.52264 18.2841 1.65696 17.8662 1.65696 16.3438C1.65696 14.8214 2.74653 14.7318 3.00026 14.7318C3.254 14.7318 20.3289 14.7318 20.3289 14.7318V13.284Z" fill="#D62617"/>
<path d="M21.3873 13.8213V14.1945C21.044 14.5527 20.3275 14.7318 20.3275 14.7318V13.284C20.3275 13.284 21.044 13.478 21.3873 13.8213Z" fill="#D62617"/>
<path d="M17.1779 1.52206H5.05832V1.95491H17.1779V1.52206Z" fill="#1A1B26"/>
<path d="M17.1779 2.33026H5.05832V2.76311H17.1779V2.33026Z" fill="#1A1B26"/>
<path d="M17.1779 3.13436H5.05832V3.56721H17.1779V3.13436Z" fill="#1A1B26"/>
<path d="M16.4899 7.9856H2.07176V8.41844H16.4899V7.9856Z" fill="#1A1B26"/>
<path d="M16.4899 8.87995H2.07176V9.3128H16.4899V8.87995Z" fill="#1A1B26"/>
<path d="M16.4899 9.74558H2.07176V10.1784H16.4899V9.74558Z" fill="#1A1B26"/>
<path d="M19.4147 15.3291H3.38454V15.762H19.4147V15.3291Z" fill="#1A1B26"/>
<path d="M19.4147 16.164H3.38454V16.5968H19.4147V16.164Z" fill="#1A1B26"/>
<path d="M19.4147 17.2101H3.38454V17.643H19.4147V17.2101Z" fill="#1A1B26"/>
<path d="M18.9112 0.568663C18.8814 0.61344 18.7769 0.688069 18.6127 0.688069V0.449257C18.7769 0.464183 18.8814 0.538811 18.9112 0.568663Z" fill="#1A1B26"/>
<path d="M21.8065 14.0149C21.7617 14.0746 21.6274 14.1642 21.4035 14.1791C21.3886 14.194 21.3886 14.194 21.3737 14.2089V13.8358C21.3886 13.8507 21.3886 13.8507 21.4035 13.8657C21.6423 13.8657 21.7766 13.9552 21.8065 14.0149Z" fill="#1A1B26"/>
<path d="M0.373171 6.65638V6.98475L0.358245 6.96982C0.164212 6.95489 0.0448074 6.86534 3.05176e-05 6.82056C0.0448074 6.77579 0.164212 6.68623 0.358245 6.67131C0.373171 6.67131 0.373171 6.65638 0.373171 6.65638Z" fill="#1A1B26"/>
<path d="M52.9157 9.91235C52.9157 11.1363 52.7216 12.2855 52.3336 13.3453C51.9455 14.405 51.3783 15.3155 50.6171 16.0767C49.8708 16.8379 48.9454 17.42 47.8409 17.8379C46.7514 18.2559 45.5275 18.4648 44.1842 18.4648H38.8706C38.7512 18.4648 38.6468 18.3603 38.6468 18.2409V2.62858C38.6468 2.50917 38.7512 2.40469 38.8706 2.40469H44.4379C46.0648 2.40469 47.3484 2.55395 48.3036 2.85247C49.2589 3.15098 50.1096 3.68831 50.8559 4.44952C51.3783 4.98685 51.8559 5.71821 52.2739 6.64361C52.7067 7.55408 52.9157 8.64366 52.9157 9.91235ZM49.0947 10.1661C49.0947 9.56906 49.0201 9.00188 48.8708 8.47948C48.7216 7.95708 48.4827 7.47945 48.1395 7.03168C47.7962 6.59883 47.3335 6.24061 46.7514 5.97195C46.1543 5.70329 45.4379 5.56896 44.5872 5.56896H42.4826C42.3632 5.56896 42.2588 5.67344 42.2588 5.79284V15.0319C42.2588 15.1513 42.3632 15.2558 42.4826 15.2558H43.826C44.6618 15.2558 45.4081 15.1364 46.0648 14.9125C46.7215 14.6886 47.2738 14.3602 47.7215 13.9274C48.1693 13.4945 48.5126 12.9572 48.7514 12.3154C48.9753 11.7034 49.0947 10.9721 49.0947 10.1661Z" fill="#1A1B26"/>
<path d="M67.3309 11.7801C67.3309 13.3473 67.0473 14.6309 66.4652 15.6309C65.8831 16.6309 65.107 17.3474 64.1368 17.7802C63.1666 18.2131 62.0771 18.437 60.883 18.437C59.6591 18.437 58.689 18.2728 57.9875 17.9593C57.286 17.6459 56.6889 17.2578 56.1964 16.7951C55.7038 16.3324 55.3307 15.8249 55.062 15.2578C54.8083 14.7055 54.6292 14.0637 54.5247 13.3473C54.4202 12.6308 54.3755 11.7204 54.3755 10.6159V2.36191C54.3755 2.2425 54.4799 2.13802 54.5993 2.13802H57.7636C57.883 2.13802 57.9875 2.2425 57.9875 2.36191V11.5263C57.9875 14.0189 58.9427 15.2727 60.8383 15.2727C61.8233 15.2727 62.5547 14.9742 63.0323 14.3771C63.5099 13.7801 63.7338 13.0637 63.7338 12.2428V2.36191C63.7338 2.2425 63.8383 2.13802 63.9577 2.13802H67.107C67.2264 2.13802 67.3309 2.2425 67.3309 2.36191V11.7801Z" fill="#1A1B26"/>
<path d="M101.808 11.7801C101.808 13.3473 101.524 14.6309 100.942 15.6309C100.36 16.6309 99.5837 17.3474 98.6136 17.7802C97.6434 18.2131 96.5538 18.437 95.3598 18.437C94.1359 18.437 93.1657 18.2728 92.4642 17.9593C91.7627 17.6459 91.1657 17.2578 90.6731 16.7951C90.1806 16.3324 89.8075 15.8249 89.5388 15.2578C89.2851 14.7055 89.106 14.0637 89.0015 13.3473C88.897 12.6308 88.8522 11.7204 88.8522 10.6159V2.36191C88.8522 2.2425 88.9567 2.13802 89.0761 2.13802H92.2403C92.3597 2.13802 92.4642 2.2425 92.4642 2.36191V11.5263C92.4642 14.0189 93.4195 15.2727 95.315 15.2727C96.3001 15.2727 97.0315 14.9742 97.5091 14.3771C97.9867 13.7801 98.2106 13.0637 98.2106 12.2428V2.36191C98.2106 2.2425 98.3151 2.13802 98.4345 2.13802H101.584C101.703 2.13802 101.808 2.2425 101.808 2.36191V11.7801Z" fill="#1A1B26"/>
<path d="M115.599 2.62745V5.47827C115.599 5.59768 115.494 5.70216 115.375 5.70216H108.151C108.031 5.70216 107.927 5.80664 107.927 5.92604V8.29924C107.927 8.41865 108.031 8.52313 108.151 8.52313H114.987C115.106 8.52313 115.211 8.62761 115.211 8.74701V11.4784C115.211 11.5978 115.106 11.7023 114.987 11.7023H108.151C108.031 11.7023 107.927 11.8068 107.927 11.9262V14.9412C107.927 15.0606 108.031 15.1651 108.151 15.1651H115.375C115.494 15.1651 115.599 15.2696 115.599 15.389V18.2398C115.599 18.3592 115.494 18.4637 115.375 18.4637H104.375C104.255 18.4637 104.151 18.3592 104.151 18.2398V2.62745C104.151 2.50804 104.255 2.40356 104.375 2.40356H115.375C115.494 2.40356 115.599 2.50804 115.599 2.62745Z" fill="#1A1B26"/>
<path d="M36.2411 2.62745V5.47827C36.2411 5.59768 36.1366 5.70216 36.0172 5.70216H28.7932C28.6738 5.70216 28.5693 5.80664 28.5693 5.92604V8.29924C28.5693 8.41865 28.6738 8.52313 28.7932 8.52313H35.6292C35.7486 8.52313 35.853 8.62761 35.853 8.74701V11.4784C35.853 11.5978 35.7486 11.7023 35.6292 11.7023H28.7932C28.6738 11.7023 28.5693 11.8068 28.5693 11.9262V14.9412C28.5693 15.0606 28.6738 15.1651 28.7932 15.1651H36.0172C36.1366 15.1651 36.2411 15.2696 36.2411 15.389V18.2398C36.2411 18.3592 36.1366 18.4637 36.0172 18.4637H25.017C24.8976 18.4637 24.7932 18.3592 24.7932 18.2398V2.62745C24.7932 2.50804 24.8976 2.40356 25.017 2.40356H36.0172C36.1366 2.40356 36.2411 2.50804 36.2411 2.62745Z" fill="#1A1B26"/>
<path d="M129.868 5.49468C129.868 6.19619 129.106 6.62904 128.509 6.27082C127.614 5.73349 126.39 5.19617 125.017 5.19617C123.614 5.19617 122.33 5.76334 122.33 6.71859C122.33 7.12159 122.524 7.3604 122.718 7.46488C123.285 7.8828 124.867 8.21117 125.718 8.4052L126.121 8.49476C127.196 8.73357 130.882 9.55449 130.882 12.9874C130.882 16.1218 127.838 18.4204 123.927 18.4204C122.032 18.4204 120.36 17.9278 118.748 16.9726C118.479 16.8084 118.315 16.5099 118.315 16.1965V14.4949C118.315 13.7934 119.106 13.3456 119.703 13.7188C121.45 14.8382 122.882 15.0919 123.897 15.0919C125.211 15.0919 126.853 14.4054 126.853 13.077C126.853 12.062 125.823 11.5993 123.763 11.1963C122.241 10.8978 118.33 10.0918 118.33 6.68874C118.33 3.44985 121.584 1.86772 124.778 1.86772C126.718 1.86772 128.196 2.44983 129.375 3.00208C129.688 3.15134 129.897 3.46478 129.897 3.823V5.49468H129.868Z" fill="#1A1B26"/>
<path d="M145.481 2.62745V5.47827C145.481 5.59768 145.377 5.70216 145.257 5.70216H141.078C140.959 5.70216 140.854 5.80664 140.854 5.92604V18.2249C140.854 18.3443 140.75 18.4488 140.63 18.4488H137.287C137.168 18.4488 137.063 18.3443 137.063 18.2249V5.91112C137.063 5.79171 136.959 5.68723 136.839 5.68723H132.69C132.571 5.68723 132.466 5.58275 132.466 5.46334V2.62745C132.466 2.50804 132.571 2.40356 132.69 2.40356H145.242C145.392 2.40356 145.481 2.50804 145.481 2.62745Z" fill="#1A1B26"/>
<path d="M78.4328 18.4373C73.4328 18.5567 69.6864 14.7954 69.7014 9.89979C69.7163 4.89966 73.6566 1.07866 78.6418 1.24285C83.5822 1.40703 87.3285 5.19817 87.1046 9.97441C86.03 9.97441 84.9404 10.0192 83.8658 9.92964C83.6568 9.91471 83.3583 9.39231 83.3135 9.06394C82.8956 6.7206 81.2687 5.19817 78.8358 4.94443C76.8806 4.73547 74.7611 5.95939 74.0447 7.66092C73.0745 10.0043 73.6119 12.4521 75.4776 13.8103C76.0447 14.2283 76.7612 14.5566 77.4627 14.6462C78.2388 14.7656 78.5373 14.9895 78.4776 15.7805C78.3881 16.6462 78.4328 17.5119 78.4328 18.4373Z" fill="#1A1B26"/>
<path d="M82.2697 10.0643C82.7473 13.0047 83.7622 14.0794 86.5235 14.751C86.807 14.8257 87.1653 15.2436 87.1951 15.5272C87.2847 16.4973 87.225 17.4675 87.225 18.4228C82.4338 18.6616 78.4338 14.8257 78.4935 10.0643C79.7174 10.0643 80.9562 10.0643 82.2697 10.0643Z" fill="#D62617"/>
</svg>
